<svg xmlns="http://www.w3.org/2000/svg" viewBox="0 0 1920 492.37"><defs><style>.cls-1{fill:#fff;}</style></defs><g id="Capa_2" data-name="Capa 2"><g id="TYPO"><path class="cls-1" d="M178.45,53.47v438.9h-61.3V53.47H0V0H295.26V53.47Z"/><path class="cls-1" d="M358.26,319v1q0,49.72,33.72,83.44t79.68,33.71q45.63,0,80-34.39,4.77-4.77,18.39-21.46L628,401.78a187.86,187.86,0,0,1-30,38.49q-51.78,52.1-126.35,52.1-73.91,0-125.15-51.25T295.26,320.05q0-70.49,51.25-121.57t125.15-51.09q74.58,0,126.35,51.77Q642.62,244.1,642.62,319Zm10.9-53.81h204q-21.79-63.33-101.49-63.34Q391.64,201.88,369.16,265.22Z"/><path class="cls-1" d="M847.63,200.52H701.19V147.39H948.43L800,438.9H948.43v53.47H701.19Z"/><path class="cls-1" d="M1181.38,147.39c-43,0-82.32,11.8-112.73,37.64V0H1007V492.37h61.64V451a173.51,173.51,0,0,0,112.73,41.41c96.3,0,174.33-78.08,174.33-174.37S1277.68,147.39,1181.38,147.39Zm-.68,296.26A125.63,125.63,0,1,1,1306.31,318,125.54,125.54,0,0,1,1180.7,443.65Z"/><path class="cls-1" d="M1564.47,147.39v46.3s-88.54,3.2-88.54,67V492.37h-61.64v-345h61.64v44.29S1481.41,147.39,1564.47,147.39Z"/><path class="cls-1" d="M1684.34,147.39v345H1623v-345Z"/><path class="cls-1" d="M1800.81,147.39V0h61.3V147.39H1920v53.13h-57.89V492.37h-61.3V200.52h-57.9V147.39Z"/></g></g></svg>